<svg width="414" height="214" viewBox="0 0 414 214" fill="none" xmlns="http://www.w3.org/2000/svg">
<g filter="url(#filter0_ddd_879_22801)">
<circle cx="105.5" cy="87.875" r="85.5" fill="#F76707"/>
<circle cx="308.5" cy="87.875" r="85.5" fill="#F76707"/>
<path d="M264 14.875C209 50.375 172 28.875 148.5 13.875V161.875C206.5 133.875 244 147.375 264 160.875V14.875Z" fill="#F76707"/>
<path d="M54.648 98.375V75.975H63.768C66.1573 75.975 68.248 76.455 70.04 77.415C71.8533 78.3537 73.2613 79.6657 74.264 81.351C75.2667 83.0363 75.768 84.9777 75.768 87.175C75.768 89.3723 75.2667 91.3137 74.264 92.999C73.2613 94.6843 71.8533 96.007 70.04 96.967C68.248 97.9057 66.1573 98.375 63.768 98.375H54.648ZM57.016 96.327H63.64C65.624 96.327 67.3413 95.943 68.792 95.175C70.264 94.3857 71.4053 93.3083 72.216 91.943C73.0267 90.5563 73.432 88.967 73.432 87.175C73.432 85.3617 73.0267 83.7723 72.216 82.407C71.4053 81.0417 70.264 79.975 68.792 79.207C67.3413 78.4177 65.624 78.023 63.64 78.023H57.016V96.327ZM87.4535 98.535C85.8322 98.535 84.3708 98.1723 83.0695 97.447C81.7895 96.7003 80.7762 95.687 80.0295 94.407C79.2828 93.1057 78.9095 91.623 78.9095 89.959C78.9095 88.2737 79.2828 86.791 80.0295 85.511C80.7762 84.231 81.7895 83.2283 83.0695 82.503C84.3495 81.7777 85.8108 81.415 87.4535 81.415C89.1175 81.415 90.5895 81.7777 91.8695 82.503C93.1708 83.2283 94.1842 84.231 94.9095 85.511C95.6562 86.791 96.0295 88.2737 96.0295 89.959C96.0295 91.623 95.6562 93.1057 94.9095 94.407C94.1842 95.687 93.1708 96.7003 91.8695 97.447C90.5682 98.1723 89.0962 98.535 87.4535 98.535ZM87.4535 96.519C88.6695 96.519 89.7468 96.2523 90.6855 95.719C91.6242 95.1643 92.3602 94.3963 92.8935 93.415C93.4482 92.4123 93.7255 91.2603 93.7255 89.959C93.7255 88.6363 93.4482 87.4843 92.8935 86.503C92.3602 85.5217 91.6242 84.7643 90.6855 84.231C89.7468 83.6763 88.6802 83.399 87.4855 83.399C86.2908 83.399 85.2242 83.6763 84.2855 84.231C83.3468 84.7643 82.6002 85.5217 82.0455 86.503C81.4908 87.4843 81.2135 88.6363 81.2135 89.959C81.2135 91.2603 81.4908 92.4123 82.0455 93.415C82.6002 94.3963 83.3468 95.1643 84.2855 95.719C85.2242 96.2523 86.2802 96.519 87.4535 96.519ZM109.244 81.415C110.609 81.415 111.804 81.6817 112.828 82.215C113.873 82.727 114.684 83.5163 115.26 84.583C115.857 85.6497 116.156 86.9937 116.156 88.615V98.375H113.884V88.839C113.884 87.0683 113.436 85.735 112.54 84.839C111.665 83.9217 110.428 83.463 108.828 83.463C107.633 83.463 106.588 83.7083 105.692 84.199C104.817 84.6683 104.135 85.3617 103.644 86.279C103.175 87.175 102.94 88.263 102.94 89.543V98.375H100.668V81.575H102.844V86.183L102.492 85.319C103.025 84.103 103.879 83.1537 105.052 82.471C106.225 81.767 107.623 81.415 109.244 81.415ZM120.667 82.439L122.075 76.551L122.331 77.895C121.84 77.895 121.424 77.7457 121.083 77.447C120.763 77.127 120.603 76.711 120.603 76.199C120.603 75.687 120.763 75.271 121.083 74.951C121.424 74.631 121.83 74.471 122.299 74.471C122.79 74.471 123.184 74.6417 123.483 74.983C123.803 75.303 123.963 75.7083 123.963 76.199C123.963 76.3697 123.952 76.5403 123.931 76.711C123.91 76.8817 123.867 77.0737 123.803 77.287C123.76 77.479 123.686 77.7243 123.579 78.023L122.203 82.439H120.667ZM134.136 98.535C132.558 98.535 131.342 98.1083 130.488 97.255C129.635 96.4017 129.208 95.1963 129.208 93.639V77.863H131.48V93.511C131.48 94.4923 131.726 95.2497 132.216 95.783C132.728 96.3163 133.454 96.583 134.392 96.583C135.395 96.583 136.227 96.295 136.888 95.719L137.688 97.351C137.24 97.7563 136.696 98.055 136.056 98.247C135.438 98.439 134.798 98.535 134.136 98.535ZM126.2 83.463V81.575H136.6V83.463H126.2ZM160.407 98.567C158.722 98.567 157.165 98.2897 155.735 97.735C154.306 97.159 153.069 96.359 152.023 95.335C150.978 94.311 150.157 93.1057 149.559 91.719C148.983 90.3323 148.695 88.8177 148.695 87.175C148.695 85.5323 148.983 84.0177 149.559 82.631C150.157 81.2443 150.978 80.039 152.023 79.015C153.09 77.991 154.338 77.2017 155.767 76.647C157.197 76.071 158.754 75.783 160.439 75.783C162.061 75.783 163.586 76.0603 165.015 76.615C166.445 77.1483 167.65 77.959 168.631 79.047L167.127 80.551C166.21 79.6123 165.197 78.9403 164.087 78.535C162.978 78.1083 161.783 77.895 160.503 77.895C159.159 77.895 157.911 78.1297 156.759 78.599C155.607 79.047 154.605 79.6977 153.751 80.551C152.898 81.383 152.226 82.3643 151.735 83.495C151.266 84.6043 151.031 85.831 151.031 87.175C151.031 88.519 151.266 89.7563 151.735 90.887C152.226 91.9963 152.898 92.9777 153.751 93.831C154.605 94.663 155.607 95.3137 156.759 95.783C157.911 96.231 159.159 96.455 160.503 96.455C161.783 96.455 162.978 96.2417 164.087 95.815C165.197 95.3883 166.21 94.7057 167.127 93.767L168.631 95.271C167.65 96.359 166.445 97.1803 165.015 97.735C163.586 98.2897 162.05 98.567 160.407 98.567ZM179.297 98.535C177.676 98.535 176.215 98.1723 174.913 97.447C173.633 96.7003 172.62 95.687 171.873 94.407C171.127 93.1057 170.753 91.623 170.753 89.959C170.753 88.2737 171.127 86.791 171.873 85.511C172.62 84.231 173.633 83.2283 174.913 82.503C176.193 81.7777 177.655 81.415 179.297 81.415C180.961 81.415 182.433 81.7777 183.713 82.503C185.015 83.2283 186.028 84.231 186.753 85.511C187.5 86.791 187.873 88.2737 187.873 89.959C187.873 91.623 187.5 93.1057 186.753 94.407C186.028 95.687 185.015 96.7003 183.713 97.447C182.412 98.1723 180.94 98.535 179.297 98.535ZM179.297 96.519C180.513 96.519 181.591 96.2523 182.529 95.719C183.468 95.1643 184.204 94.3963 184.737 93.415C185.292 92.4123 185.569 91.2603 185.569 89.959C185.569 88.6363 185.292 87.4843 184.737 86.503C184.204 85.5217 183.468 84.7643 182.529 84.231C181.591 83.6763 180.524 83.399 179.329 83.399C178.135 83.399 177.068 83.6763 176.129 84.231C175.191 84.7643 174.444 85.5217 173.889 86.503C173.335 87.4843 173.057 88.6363 173.057 89.959C173.057 91.2603 173.335 92.4123 173.889 93.415C174.444 94.3963 175.191 95.1643 176.129 95.719C177.068 96.2523 178.124 96.519 179.297 96.519ZM213.504 81.415C214.869 81.415 216.053 81.6817 217.056 82.215C218.08 82.727 218.869 83.5163 219.424 84.583C220 85.6497 220.288 86.9937 220.288 88.615V98.375H218.016V88.839C218.016 87.0683 217.589 85.735 216.736 84.839C215.904 83.9217 214.72 83.463 213.184 83.463C212.032 83.463 211.029 83.7083 210.176 84.199C209.344 84.6683 208.693 85.3617 208.224 86.279C207.776 87.175 207.552 88.263 207.552 89.543V98.375H205.28V88.839C205.28 87.0683 204.853 85.735 204 84.839C203.146 83.9217 201.952 83.463 200.416 83.463C199.285 83.463 198.293 83.7083 197.44 84.199C196.586 84.6683 195.925 85.3617 195.456 86.279C195.008 87.175 194.784 88.263 194.784 89.543V98.375H192.512V81.575H194.688V86.119L194.336 85.319C194.848 84.103 195.669 83.1537 196.8 82.471C197.952 81.767 199.306 81.415 200.864 81.415C202.506 81.415 203.904 81.831 205.056 82.663C206.208 83.4737 206.954 84.7003 207.296 86.343L206.4 85.991C206.89 84.6257 207.754 83.527 208.992 82.695C210.25 81.8417 211.754 81.415 213.504 81.415ZM235.121 98.535C233.671 98.535 232.359 98.2043 231.185 97.543C230.012 96.8603 229.073 95.8897 228.369 94.631C227.687 93.351 227.345 91.7937 227.345 89.959C227.345 88.1243 227.687 86.5777 228.369 85.319C229.052 84.039 229.98 83.0683 231.153 82.407C232.327 81.7457 233.649 81.415 235.121 81.415C236.721 81.415 238.151 81.7777 239.409 82.503C240.689 83.207 241.692 84.2097 242.417 85.511C243.143 86.791 243.505 88.2737 243.505 89.959C243.505 91.6657 243.143 93.159 242.417 94.439C241.692 95.719 240.689 96.7217 239.409 97.447C238.151 98.1723 236.721 98.535 235.121 98.535ZM226.449 104.583V81.575H228.625V86.631L228.401 89.991L228.721 93.383V104.583H226.449ZM234.961 96.519C236.156 96.519 237.223 96.2523 238.161 95.719C239.1 95.1643 239.847 94.3963 240.401 93.415C240.956 92.4123 241.233 91.2603 241.233 89.959C241.233 88.6577 240.956 87.5163 240.401 86.535C239.847 85.5537 239.1 84.7857 238.161 84.231C237.223 83.6763 236.156 83.399 234.961 83.399C233.767 83.399 232.689 83.6763 231.729 84.231C230.791 84.7857 230.044 85.5537 229.489 86.535C228.956 87.5163 228.689 88.6577 228.689 89.959C228.689 91.2603 228.956 92.4123 229.489 93.415C230.044 94.3963 230.791 95.1643 231.729 95.719C232.689 96.2523 233.767 96.519 234.961 96.519ZM248.137 98.375V81.575H250.313V86.151L250.089 85.351C250.558 84.071 251.347 83.1003 252.457 82.439C253.566 81.7563 254.942 81.415 256.585 81.415V83.623C256.499 83.623 256.414 83.623 256.329 83.623C256.243 83.6017 256.158 83.591 256.073 83.591C254.302 83.591 252.915 84.135 251.913 85.223C250.91 86.2897 250.409 87.815 250.409 89.799V98.375H248.137ZM267.422 98.535C265.801 98.535 264.34 98.1723 263.038 97.447C261.758 96.7003 260.745 95.687 259.998 94.407C259.252 93.1057 258.878 91.623 258.878 89.959C258.878 88.2737 259.252 86.791 259.998 85.511C260.745 84.231 261.758 83.2283 263.038 82.503C264.318 81.7777 265.78 81.415 267.422 81.415C269.086 81.415 270.558 81.7777 271.838 82.503C273.14 83.2283 274.153 84.231 274.878 85.511C275.625 86.791 275.998 88.2737 275.998 89.959C275.998 91.623 275.625 93.1057 274.878 94.407C274.153 95.687 273.14 96.7003 271.838 97.447C270.537 98.1723 269.065 98.535 267.422 98.535ZM267.422 96.519C268.638 96.519 269.716 96.2523 270.654 95.719C271.593 95.1643 272.329 94.3963 272.862 93.415C273.417 92.4123 273.694 91.2603 273.694 89.959C273.694 88.6363 273.417 87.4843 272.862 86.503C272.329 85.5217 271.593 84.7643 270.654 84.231C269.716 83.6763 268.649 83.399 267.454 83.399C266.26 83.399 265.193 83.6763 264.254 84.231C263.316 84.7643 262.569 85.5217 262.014 86.503C261.46 87.4843 261.182 88.6363 261.182 89.959C261.182 91.2603 261.46 92.4123 262.014 93.415C262.569 94.3963 263.316 95.1643 264.254 95.719C265.193 96.2523 266.249 96.519 267.422 96.519ZM301.629 81.415C302.994 81.415 304.178 81.6817 305.181 82.215C306.205 82.727 306.994 83.5163 307.549 84.583C308.125 85.6497 308.413 86.9937 308.413 88.615V98.375H306.141V88.839C306.141 87.0683 305.714 85.735 304.861 84.839C304.029 83.9217 302.845 83.463 301.309 83.463C300.157 83.463 299.154 83.7083 298.301 84.199C297.469 84.6683 296.818 85.3617 296.349 86.279C295.901 87.175 295.677 88.263 295.677 89.543V98.375H293.405V88.839C293.405 87.0683 292.978 85.735 292.125 84.839C291.271 83.9217 290.077 83.463 288.541 83.463C287.41 83.463 286.418 83.7083 285.565 84.199C284.711 84.6683 284.05 85.3617 283.581 86.279C283.133 87.175 282.909 88.263 282.909 89.543V98.375H280.637V81.575H282.813V86.119L282.461 85.319C282.973 84.103 283.794 83.1537 284.925 82.471C286.077 81.767 287.431 81.415 288.989 81.415C290.631 81.415 292.029 81.831 293.181 82.663C294.333 83.4737 295.079 84.7003 295.421 86.343L294.525 85.991C295.015 84.6257 295.879 83.527 297.117 82.695C298.375 81.8417 299.879 81.415 301.629 81.415ZM314.574 98.375V81.575H316.846V98.375H314.574ZM315.726 77.863C315.257 77.863 314.862 77.703 314.542 77.383C314.222 77.063 314.062 76.679 314.062 76.231C314.062 75.783 314.222 75.4097 314.542 75.111C314.862 74.791 315.257 74.631 315.726 74.631C316.196 74.631 316.59 74.7803 316.91 75.079C317.23 75.3777 317.39 75.751 317.39 76.199C317.39 76.6683 317.23 77.063 316.91 77.383C316.612 77.703 316.217 77.863 315.726 77.863ZM327.68 98.535C326.293 98.535 324.981 98.343 323.744 97.959C322.507 97.5537 321.536 97.0523 320.832 96.455L321.856 94.663C322.539 95.175 323.413 95.623 324.48 96.007C325.547 96.3697 326.667 96.551 327.84 96.551C329.44 96.551 330.592 96.3057 331.296 95.815C332 95.303 332.352 94.631 332.352 93.799C332.352 93.1803 332.149 92.7003 331.744 92.359C331.36 91.9963 330.848 91.7297 330.208 91.559C329.568 91.367 328.853 91.207 328.064 91.079C327.275 90.951 326.485 90.8017 325.696 90.631C324.928 90.4603 324.224 90.215 323.584 89.895C322.944 89.5537 322.421 89.095 322.016 88.519C321.632 87.943 321.44 87.175 321.44 86.215C321.44 85.2977 321.696 84.4763 322.208 83.751C322.72 83.0257 323.467 82.4603 324.448 82.055C325.451 81.6283 326.667 81.415 328.096 81.415C329.184 81.415 330.272 81.5643 331.36 81.863C332.448 82.1403 333.344 82.5137 334.048 82.983L333.056 84.807C332.309 84.295 331.509 83.9323 330.656 83.719C329.803 83.4843 328.949 83.367 328.096 83.367C326.581 83.367 325.461 83.6337 324.736 84.167C324.032 84.679 323.68 85.3403 323.68 86.151C323.68 86.791 323.872 87.2923 324.256 87.655C324.661 88.0177 325.184 88.3057 325.824 88.519C326.485 88.711 327.2 88.871 327.968 88.999C328.757 89.127 329.536 89.287 330.304 89.479C331.093 89.6497 331.808 89.895 332.448 90.215C333.109 90.5137 333.632 90.951 334.016 91.527C334.421 92.0817 334.624 92.8177 334.624 93.735C334.624 94.7163 334.347 95.5697 333.792 96.295C333.259 96.999 332.469 97.5537 331.424 97.959C330.4 98.343 329.152 98.535 327.68 98.535ZM345.929 98.535C344.18 98.535 342.644 98.1723 341.321 97.447C339.998 96.7003 338.964 95.687 338.217 94.407C337.47 93.1057 337.097 91.623 337.097 89.959C337.097 88.295 337.449 86.823 338.153 85.543C338.878 84.263 339.86 83.2603 341.097 82.535C342.356 81.7883 343.764 81.415 345.321 81.415C346.9 81.415 348.297 81.7777 349.513 82.503C350.75 83.207 351.721 84.2097 352.425 85.511C353.129 86.791 353.481 88.2737 353.481 89.959C353.481 90.0657 353.47 90.183 353.449 90.311C353.449 90.4177 353.449 90.535 353.449 90.663H338.825V88.967H352.233L351.337 89.639C351.337 88.423 351.07 87.3457 350.537 86.407C350.025 85.447 349.321 84.7003 348.425 84.167C347.529 83.6337 346.494 83.367 345.321 83.367C344.169 83.367 343.134 83.6337 342.217 84.167C341.3 84.7003 340.585 85.447 340.073 86.407C339.561 87.367 339.305 88.4657 339.305 89.703V90.055C339.305 91.335 339.582 92.4657 340.137 93.447C340.713 94.407 341.502 95.1643 342.505 95.719C343.529 96.2523 344.692 96.519 345.993 96.519C347.017 96.519 347.966 96.3377 348.841 95.975C349.737 95.6123 350.505 95.0577 351.145 94.311L352.425 95.783C351.678 96.679 350.74 97.3617 349.609 97.831C348.5 98.3003 347.273 98.535 345.929 98.535ZM358.202 91.655L357.754 75.975H360.442L359.962 91.655H358.202ZM359.098 98.535C358.628 98.535 358.223 98.375 357.882 98.055C357.562 97.7137 357.402 97.319 357.402 96.871C357.402 96.4017 357.562 96.0177 357.882 95.719C358.223 95.399 358.628 95.239 359.098 95.239C359.588 95.239 359.983 95.399 360.282 95.719C360.602 96.0177 360.762 96.4017 360.762 96.871C360.762 97.319 360.602 97.7137 360.282 98.055C359.983 98.375 359.588 98.535 359.098 98.535Z" fill="white"/>
</g>
<defs>
<filter id="filter0_ddd_879_22801" x="0" y="0.375" width="414" height="213" filterUnits="userSpaceOnUse" color-interpolation-filters="sRGB">
<feFlood flood-opacity="0" result="BackgroundImageFix"/>
<feColorMatrix in="SourceAlpha" type="matrix" values="0 0 0 0 0 0 0 0 0 0 0 0 0 0 0 0 0 0 127 0" result="hardAlpha"/>
<feOffset dy="1"/>
<feGaussianBlur stdDeviation="1.5"/>
<feComposite in2="hardAlpha" operator="out"/>
<feColorMatrix type="matrix" values="0 0 0 0 0 0 0 0 0 0 0 0 0 0 0 0 0 0 0.0509804 0"/>
<feBlend mode="normal" in2="BackgroundImageFix" result="effect1_dropShadow_879_22801"/>
<feColorMatrix in="SourceAlpha" type="matrix" values="0 0 0 0 0 0 0 0 0 0 0 0 0 0 0 0 0 0 127 0" result="hardAlpha"/>
<feMorphology radius="5" operator="erode" in="SourceAlpha" result="effect2_dropShadow_879_22801"/>
<feOffset dy="20"/>
<feGaussianBlur stdDeviation="12.5"/>
<feComposite in2="hardAlpha" operator="out"/>
<feColorMatrix type="matrix" values="0 0 0 0 0 0 0 0 0 0 0 0 0 0 0 0 0 0 0.101961 0"/>
<feBlend mode="normal" in2="effect1_dropShadow_879_22801" result="effect2_dropShadow_879_22801"/>
<feColorMatrix in="SourceAlpha" type="matrix" values="0 0 0 0 0 0 0 0 0 0 0 0 0 0 0 0 0 0 127 0" result="hardAlpha"/>
<feMorphology radius="5" operator="erode" in="SourceAlpha" result="effect3_dropShadow_879_22801"/>
<feOffset dy="10"/>
<feGaussianBlur stdDeviation="5"/>
<feComposite in2="hardAlpha" operator="out"/>
<feColorMatrix type="matrix" values="0 0 0 0 0 0 0 0 0 0 0 0 0 0 0 0 0 0 0.0392157 0"/>
<feBlend mode="normal" in2="effect2_dropShadow_879_22801" result="effect3_dropShadow_879_22801"/>
<feBlend mode="normal" in="SourceGraphic" in2="effect3_dropShadow_879_22801" result="shape"/>
</filter>
</defs>
</svg>
