<svg width="211" height="174" viewBox="0 0 211 174" fill="none" xmlns="http://www.w3.org/2000/svg">
<g filter="url(#filter0_ddd_879_22820)">
<path d="M191 87.875C191 135.095 152.72 173.375 105.5 173.375C58.2797 173.375 20 135.095 20 87.875C20 40.6547 58.2797 2.375 105.5 2.375C152.72 2.375 191 40.6547 191 87.875Z" fill="#F76707"/>
<path d="M68.1709 70.267H78.5309V72.059H68.1709V70.267ZM68.3949 80.375H66.3229V60.775H79.7629V62.567H68.3949V80.375ZM92.232 80.375V77.127L92.148 76.595V71.163C92.148 69.9123 91.7934 68.951 91.084 68.279C90.3934 67.607 89.3574 67.271 87.976 67.271C87.024 67.271 86.1187 67.4297 85.26 67.747C84.4014 68.0643 83.6734 68.4843 83.076 69.007L82.18 67.523C82.9267 66.8883 83.8227 66.403 84.868 66.067C85.9134 65.7123 87.0147 65.535 88.172 65.535C90.076 65.535 91.5414 66.011 92.568 66.963C93.6134 67.8963 94.136 69.3243 94.136 71.247V80.375H92.232ZM87.164 80.515C86.0627 80.515 85.1014 80.3377 84.28 79.983C83.4774 79.6097 82.8614 79.1057 82.432 78.471C82.0027 77.8177 81.788 77.071 81.788 76.231C81.788 75.4657 81.9654 74.775 82.32 74.159C82.6934 73.5243 83.2907 73.0203 84.112 72.647C84.952 72.255 86.072 72.059 87.472 72.059H92.54V73.543H87.528C86.1094 73.543 85.12 73.795 84.56 74.299C84.0187 74.803 83.748 75.4283 83.748 76.175C83.748 77.015 84.0747 77.687 84.728 78.191C85.3814 78.695 86.296 78.947 87.472 78.947C88.592 78.947 89.5534 78.695 90.356 78.191C91.1774 77.6683 91.7747 76.9217 92.148 75.951L92.596 77.323C92.2227 78.2937 91.5694 79.0683 90.636 79.647C89.7214 80.2257 88.564 80.515 87.164 80.515ZM103.484 80.515C102.27 80.515 101.122 80.347 100.04 80.011C98.957 79.6563 98.1077 79.2177 97.4917 78.695L98.3877 77.127C98.985 77.575 99.7503 77.967 100.684 78.303C101.617 78.6203 102.597 78.779 103.624 78.779C105.024 78.779 106.032 78.5643 106.648 78.135C107.264 77.687 107.572 77.099 107.572 76.371C107.572 75.8297 107.394 75.4097 107.04 75.111C106.704 74.7937 106.256 74.5603 105.696 74.411C105.136 74.243 104.51 74.103 103.82 73.991C103.129 73.879 102.438 73.7483 101.748 73.599C101.076 73.4497 100.46 73.235 99.8997 72.955C99.3397 72.6563 98.8823 72.255 98.5277 71.751C98.1917 71.247 98.0237 70.575 98.0237 69.735C98.0237 68.9323 98.2477 68.2137 98.6957 67.579C99.1437 66.9443 99.797 66.4497 100.656 66.095C101.533 65.7217 102.597 65.535 103.848 65.535C104.8 65.535 105.752 65.6657 106.704 65.927C107.656 66.1697 108.44 66.4963 109.056 66.907L108.188 68.503C107.534 68.055 106.834 67.7377 106.088 67.551C105.341 67.3457 104.594 67.243 103.848 67.243C102.522 67.243 101.542 67.4763 100.908 67.943C100.292 68.391 99.9837 68.9697 99.9837 69.679C99.9837 70.239 100.152 70.6777 100.488 70.995C100.842 71.3123 101.3 71.5643 101.86 71.751C102.438 71.919 103.064 72.059 103.736 72.171C104.426 72.283 105.108 72.423 105.78 72.591C106.47 72.7403 107.096 72.955 107.656 73.235C108.234 73.4963 108.692 73.879 109.028 74.383C109.382 74.8683 109.56 75.5123 109.56 76.315C109.56 77.1737 109.317 77.9203 108.832 78.555C108.365 79.171 107.674 79.6563 106.76 80.011C105.864 80.347 104.772 80.515 103.484 80.515ZM117.856 80.515C116.474 80.515 115.41 80.1417 114.664 79.395C113.917 78.6483 113.544 77.5937 113.544 76.231V62.427H115.532V76.119C115.532 76.9777 115.746 77.6403 116.176 78.107C116.624 78.5737 117.258 78.807 118.08 78.807C118.957 78.807 119.685 78.555 120.264 78.051L120.964 79.479C120.572 79.8337 120.096 80.095 119.536 80.263C118.994 80.431 118.434 80.515 117.856 80.515ZM110.912 67.327V65.675H120.012V67.327H110.912ZM137.091 80.543C135.821 80.543 134.692 80.3377 133.703 79.927C132.713 79.4977 131.929 78.9097 131.351 78.163C130.791 77.4163 130.511 76.5483 130.511 75.559C130.511 74.719 130.697 73.9537 131.071 73.263C131.444 72.5537 132.041 71.863 132.863 71.191C133.703 70.5003 134.813 69.7817 136.195 69.035C137.371 68.3817 138.285 67.8217 138.939 67.355C139.611 66.8697 140.087 66.4123 140.367 65.983C140.647 65.535 140.787 65.059 140.787 64.555C140.787 63.827 140.535 63.239 140.031 62.791C139.545 62.343 138.845 62.119 137.931 62.119C136.941 62.119 136.176 62.371 135.635 62.875C135.093 63.3603 134.823 63.995 134.823 64.779C134.823 65.171 134.879 65.5443 134.991 65.899C135.121 66.2537 135.355 66.6457 135.691 67.075C136.045 67.5043 136.531 68.0457 137.147 68.699L147.507 79.367L146.359 80.683L135.551 69.567C134.897 68.8763 134.375 68.279 133.983 67.775C133.609 67.2523 133.348 66.7577 133.199 66.291C133.049 65.8243 132.975 65.3297 132.975 64.807C132.975 63.967 133.171 63.239 133.563 62.623C133.973 61.9883 134.552 61.503 135.299 61.167C136.045 60.8123 136.923 60.635 137.931 60.635C138.845 60.635 139.639 60.7937 140.311 61.111C141.001 61.4097 141.533 61.8483 141.907 62.427C142.299 63.0057 142.495 63.7057 142.495 64.527C142.495 65.2363 142.317 65.899 141.963 66.515C141.627 67.131 141.067 67.7377 140.283 68.335C139.499 68.9137 138.435 69.567 137.091 70.295C135.915 70.9483 134.981 71.5457 134.291 72.087C133.619 72.6283 133.143 73.1603 132.863 73.683C132.583 74.187 132.443 74.747 132.443 75.363C132.443 76.0723 132.639 76.6977 133.031 77.239C133.441 77.7617 134.001 78.1723 134.711 78.471C135.439 78.751 136.269 78.891 137.203 78.891C138.509 78.891 139.676 78.6203 140.703 78.079C141.729 77.5377 142.588 76.7163 143.279 75.615C143.988 74.5137 144.501 73.1323 144.819 71.471L146.415 71.975C146.06 73.8417 145.453 75.4097 144.595 76.679C143.736 77.9483 142.672 78.9097 141.403 79.563C140.133 80.2163 138.696 80.543 137.091 80.543ZM32.4662 114.375L41.4262 94.775H43.4702L52.4302 114.375H50.2462L42.0142 95.979H42.8542L34.6222 114.375H32.4662ZM35.9942 109.139L36.6102 107.459H48.0062L48.6222 109.139H35.9942ZM55.5885 114.375V97.827C55.5885 96.5203 55.9711 95.4657 56.7365 94.663C57.5018 93.8603 58.6031 93.459 60.0405 93.459C60.6005 93.459 61.1418 93.5337 61.6645 93.683C62.1871 93.8323 62.6258 94.0657 62.9805 94.383L62.3085 95.867C62.0285 95.6243 61.7018 95.447 61.3285 95.335C60.9551 95.2043 60.5538 95.139 60.1245 95.139C59.2845 95.139 58.6405 95.3723 58.1925 95.839C57.7445 96.3057 57.5205 96.9963 57.5205 97.911V100.151L57.5765 101.075V114.375H55.5885ZM52.9565 101.327V99.675H62.0565V101.327H52.9565ZM65.1314 114.375V97.827C65.1314 96.5203 65.5141 95.4657 66.2794 94.663C67.0448 93.8603 68.1461 93.459 69.5834 93.459C70.1434 93.459 70.6848 93.5337 71.2074 93.683C71.7301 93.8323 72.1688 94.0657 72.5234 94.383L71.8514 95.867C71.5714 95.6243 71.2448 95.447 70.8714 95.335C70.4981 95.2043 70.0968 95.139 69.6674 95.139C68.8274 95.139 68.1834 95.3723 67.7354 95.839C67.2874 96.3057 67.0634 96.9963 67.0634 97.911V100.151L67.1194 101.075V114.375H65.1314ZM62.4994 101.327V99.675H71.5994V101.327H62.4994ZM80.0296 114.515C78.611 114.515 77.3323 114.198 76.1936 113.563C75.0736 112.91 74.187 112.023 73.5336 110.903C72.8803 109.764 72.5536 108.467 72.5536 107.011C72.5536 105.536 72.8803 104.239 73.5336 103.119C74.187 101.999 75.0736 101.122 76.1936 100.487C77.3136 99.8523 78.5923 99.535 80.0296 99.535C81.4856 99.535 82.7736 99.8523 83.8936 100.487C85.0323 101.122 85.919 101.999 86.5536 103.119C87.207 104.239 87.5336 105.536 87.5336 107.011C87.5336 108.467 87.207 109.764 86.5536 110.903C85.919 112.023 85.0323 112.91 83.8936 113.563C82.755 114.198 81.467 114.515 80.0296 114.515ZM80.0296 112.751C81.0936 112.751 82.0363 112.518 82.8576 112.051C83.679 111.566 84.323 110.894 84.7896 110.035C85.275 109.158 85.5176 108.15 85.5176 107.011C85.5176 105.854 85.275 104.846 84.7896 103.987C84.323 103.128 83.679 102.466 82.8576 101.999C82.0363 101.514 81.103 101.271 80.0576 101.271C79.0123 101.271 78.079 101.514 77.2576 101.999C76.4363 102.466 75.783 103.128 75.2976 103.987C74.8123 104.846 74.5696 105.854 74.5696 107.011C74.5696 108.15 74.8123 109.158 75.2976 110.035C75.783 110.894 76.4363 111.566 77.2576 112.051C78.079 112.518 79.003 112.751 80.0296 112.751ZM91.5923 114.375V99.675H93.4963V103.679L93.3003 102.979C93.711 101.859 94.4016 101.01 95.3723 100.431C96.343 99.8337 97.547 99.535 98.9843 99.535V101.467C98.9096 101.467 98.835 101.467 98.7603 101.467C98.6856 101.448 98.611 101.439 98.5363 101.439C96.987 101.439 95.7736 101.915 94.8963 102.867C94.019 103.8 93.5803 105.135 93.5803 106.871V114.375H91.5923ZM108.327 114.515C106.927 114.515 105.667 114.198 104.547 113.563C103.446 112.928 102.578 112.051 101.943 110.931C101.308 109.792 100.991 108.486 100.991 107.011C100.991 105.518 101.308 104.211 101.943 103.091C102.578 101.971 103.446 101.103 104.547 100.487C105.667 99.8523 106.927 99.535 108.327 99.535C109.615 99.535 110.763 99.8243 111.771 100.403C112.798 100.982 113.61 101.831 114.207 102.951C114.823 104.052 115.131 105.406 115.131 107.011C115.131 108.598 114.832 109.951 114.235 111.071C113.638 112.191 112.826 113.05 111.799 113.647C110.791 114.226 109.634 114.515 108.327 114.515ZM108.467 112.751C109.512 112.751 110.446 112.518 111.267 112.051C112.107 111.566 112.76 110.894 113.227 110.035C113.712 109.158 113.955 108.15 113.955 107.011C113.955 105.854 113.712 104.846 113.227 103.987C112.76 103.128 112.107 102.466 111.267 101.999C110.446 101.514 109.512 101.271 108.467 101.271C107.44 101.271 106.516 101.514 105.695 101.999C104.874 102.466 104.22 103.128 103.735 103.987C103.25 104.846 103.007 105.854 103.007 107.011C103.007 108.15 103.25 109.158 103.735 110.035C104.22 110.894 104.874 111.566 105.695 112.051C106.516 112.518 107.44 112.751 108.467 112.751ZM114.011 114.375V109.951L114.207 106.983L113.927 104.015V93.599H115.915V114.375H114.011ZM130.664 114.375V111.127L130.58 110.595V105.163C130.58 103.912 130.225 102.951 129.516 102.279C128.825 101.607 127.789 101.271 126.408 101.271C125.456 101.271 124.55 101.43 123.692 101.747C122.833 102.064 122.105 102.484 121.508 103.007L120.612 101.523C121.358 100.888 122.254 100.403 123.3 100.067C124.345 99.7123 125.446 99.535 126.604 99.535C128.508 99.535 129.973 100.011 131 100.963C132.045 101.896 132.568 103.324 132.568 105.247V114.375H130.664ZM125.596 114.515C124.494 114.515 123.533 114.338 122.712 113.983C121.909 113.61 121.293 113.106 120.864 112.471C120.434 111.818 120.22 111.071 120.22 110.231C120.22 109.466 120.397 108.775 120.752 108.159C121.125 107.524 121.722 107.02 122.544 106.647C123.384 106.255 124.504 106.059 125.904 106.059H130.972V107.543H125.96C124.541 107.543 123.552 107.795 122.992 108.299C122.45 108.803 122.18 109.428 122.18 110.175C122.18 111.015 122.506 111.687 123.16 112.191C123.813 112.695 124.728 112.947 125.904 112.947C127.024 112.947 127.985 112.695 128.788 112.191C129.609 111.668 130.206 110.922 130.58 109.951L131.028 111.323C130.654 112.294 130.001 113.068 129.068 113.647C128.153 114.226 126.996 114.515 125.596 114.515ZM145.555 114.515C144.267 114.515 143.11 114.226 142.083 113.647C141.057 113.05 140.245 112.191 139.647 111.071C139.05 109.951 138.751 108.598 138.751 107.011C138.751 105.406 139.05 104.052 139.647 102.951C140.263 101.831 141.085 100.982 142.111 100.403C143.138 99.8243 144.286 99.535 145.555 99.535C146.955 99.535 148.206 99.8523 149.307 100.487C150.427 101.103 151.305 101.971 151.939 103.091C152.574 104.211 152.891 105.518 152.891 107.011C152.891 108.486 152.574 109.792 151.939 110.931C151.305 112.051 150.427 112.928 149.307 113.563C148.206 114.198 146.955 114.515 145.555 114.515ZM137.967 114.375V93.599H139.955V104.015L139.675 106.983L139.871 109.951V114.375H137.967ZM145.415 112.751C146.461 112.751 147.394 112.518 148.215 112.051C149.037 111.566 149.69 110.894 150.175 110.035C150.661 109.158 150.903 108.15 150.903 107.011C150.903 105.854 150.661 104.846 150.175 103.987C149.69 103.128 149.037 102.466 148.215 101.999C147.394 101.514 146.461 101.271 145.415 101.271C144.37 101.271 143.427 101.514 142.587 101.999C141.766 102.466 141.113 103.128 140.627 103.987C140.161 104.846 139.927 105.854 139.927 107.011C139.927 108.15 140.161 109.158 140.627 110.035C141.113 110.894 141.766 111.566 142.587 112.051C143.427 112.518 144.37 112.751 145.415 112.751ZM156.944 114.375V93.599H158.932V114.375H156.944ZM170.707 114.515C169.177 114.515 167.833 114.198 166.675 113.563C165.518 112.91 164.613 112.023 163.959 110.903C163.306 109.764 162.979 108.467 162.979 107.011C162.979 105.555 163.287 104.267 163.903 103.147C164.538 102.027 165.397 101.15 166.479 100.515C167.581 99.8617 168.813 99.535 170.175 99.535C171.557 99.535 172.779 99.8523 173.843 100.487C174.926 101.103 175.775 101.98 176.391 103.119C177.007 104.239 177.315 105.536 177.315 107.011C177.315 107.104 177.306 107.207 177.287 107.319C177.287 107.412 177.287 107.515 177.287 107.627H164.491V106.143H176.223L175.439 106.731C175.439 105.667 175.206 104.724 174.739 103.903C174.291 103.063 173.675 102.41 172.891 101.943C172.107 101.476 171.202 101.243 170.175 101.243C169.167 101.243 168.262 101.476 167.459 101.943C166.657 102.41 166.031 103.063 165.583 103.903C165.135 104.743 164.911 105.704 164.911 106.787V107.095C164.911 108.215 165.154 109.204 165.639 110.063C166.143 110.903 166.834 111.566 167.711 112.051C168.607 112.518 169.625 112.751 170.763 112.751C171.659 112.751 172.49 112.592 173.255 112.275C174.039 111.958 174.711 111.472 175.271 110.819L176.391 112.107C175.738 112.891 174.917 113.488 173.927 113.899C172.957 114.31 171.883 114.515 170.707 114.515Z" fill="white"/>
</g>
<defs>
<filter id="filter0_ddd_879_22820" x="0" y="0.375" width="211" height="213" filterUnits="userSpaceOnUse" color-interpolation-filters="sRGB">
<feFlood flood-opacity="0" result="BackgroundImageFix"/>
<feColorMatrix in="SourceAlpha" type="matrix" values="0 0 0 0 0 0 0 0 0 0 0 0 0 0 0 0 0 0 127 0" result="hardAlpha"/>
<feOffset dy="1"/>
<feGaussianBlur stdDeviation="1.5"/>
<feComposite in2="hardAlpha" operator="out"/>
<feColorMatrix type="matrix" values="0 0 0 0 0 0 0 0 0 0 0 0 0 0 0 0 0 0 0.0509804 0"/>
<feBlend mode="normal" in2="BackgroundImageFix" result="effect1_dropShadow_879_22820"/>
<feColorMatrix in="SourceAlpha" type="matrix" values="0 0 0 0 0 0 0 0 0 0 0 0 0 0 0 0 0 0 127 0" result="hardAlpha"/>
<feMorphology radius="5" operator="erode" in="SourceAlpha" result="effect2_dropShadow_879_22820"/>
<feOffset dy="20"/>
<feGaussianBlur stdDeviation="12.5"/>
<feComposite in2="hardAlpha" operator="out"/>
<feColorMatrix type="matrix" values="0 0 0 0 0 0 0 0 0 0 0 0 0 0 0 0 0 0 0.101961 0"/>
<feBlend mode="normal" in2="effect1_dropShadow_879_22820" result="effect2_dropShadow_879_22820"/>
<feColorMatrix in="SourceAlpha" type="matrix" values="0 0 0 0 0 0 0 0 0 0 0 0 0 0 0 0 0 0 127 0" result="hardAlpha"/>
<feMorphology radius="5" operator="erode" in="SourceAlpha" result="effect3_dropShadow_879_22820"/>
<feOffset dy="10"/>
<feGaussianBlur stdDeviation="5"/>
<feComposite in2="hardAlpha" operator="out"/>
<feColorMatrix type="matrix" values="0 0 0 0 0 0 0 0 0 0 0 0 0 0 0 0 0 0 0.0392157 0"/>
<feBlend mode="normal" in2="effect2_dropShadow_879_22820" result="effect3_dropShadow_879_22820"/>
<feBlend mode="normal" in="SourceGraphic" in2="effect3_dropShadow_879_22820" result="shape"/>
</filter>
</defs>
</svg>
