<svg width="211" height="214" viewBox="0 0 211 214" fill="none" xmlns="http://www.w3.org/2000/svg">
<g filter="url(#filter0_ddd_879_22798)">
<circle cx="105.5" cy="87.875" r="85.5" fill="#F76707"/>
<path d="M88.8346 60.775H90.8786V80.375H88.8346V60.775ZM76.5706 80.375H74.4986V60.775H76.5706V80.375ZM89.0306 71.331H76.3466V69.511H89.0306V71.331ZM96.856 80.375V65.675H98.844V80.375H96.856ZM97.864 62.427C97.4533 62.427 97.108 62.287 96.828 62.007C96.548 61.727 96.408 61.391 96.408 60.999C96.408 60.607 96.548 60.2803 96.828 60.019C97.108 59.739 97.4533 59.599 97.864 59.599C98.2747 59.599 98.62 59.7297 98.9 59.991C99.18 60.2523 99.32 60.579 99.32 60.971C99.32 61.3817 99.18 61.727 98.9 62.007C98.6387 62.287 98.2933 62.427 97.864 62.427ZM110.648 85.947C109.304 85.947 108.016 85.751 106.784 85.359C105.552 84.967 104.553 84.407 103.788 83.679L104.796 82.167C105.486 82.783 106.336 83.2683 107.344 83.623C108.37 83.9963 109.453 84.183 110.592 84.183C112.458 84.183 113.83 83.7443 114.708 82.867C115.585 82.0083 116.024 80.6643 116.024 78.835V75.167L116.304 72.647L116.108 70.127V65.675H118.012V78.583C118.012 81.1217 117.386 82.979 116.136 84.155C114.904 85.3497 113.074 85.947 110.648 85.947ZM110.284 79.815C108.884 79.815 107.624 79.5163 106.504 78.919C105.384 78.303 104.497 77.4537 103.844 76.371C103.209 75.2883 102.892 74.047 102.892 72.647C102.892 71.247 103.209 70.015 103.844 68.951C104.497 67.8683 105.384 67.0283 106.504 66.431C107.624 65.8337 108.884 65.535 110.284 65.535C111.59 65.535 112.766 65.8057 113.812 66.347C114.857 66.8883 115.688 67.691 116.304 68.755C116.92 69.819 117.228 71.1163 117.228 72.647C117.228 74.1777 116.92 75.475 116.304 76.539C115.688 77.603 114.857 78.415 113.812 78.975C112.766 79.535 111.59 79.815 110.284 79.815ZM110.48 78.051C111.562 78.051 112.524 77.827 113.364 77.379C114.204 76.9123 114.866 76.2777 115.352 75.475C115.837 74.6537 116.08 73.711 116.08 72.647C116.08 71.583 115.837 70.6497 115.352 69.847C114.866 69.0443 114.204 68.419 113.364 67.971C112.524 67.5043 111.562 67.271 110.48 67.271C109.416 67.271 108.454 67.5043 107.596 67.971C106.756 68.419 106.093 69.0443 105.608 69.847C105.141 70.6497 104.908 71.583 104.908 72.647C104.908 73.711 105.141 74.6537 105.608 75.475C106.093 76.2777 106.756 76.9123 107.596 77.379C108.454 77.827 109.416 78.051 110.48 78.051ZM131.047 65.535C132.242 65.535 133.287 65.7683 134.183 66.235C135.098 66.683 135.807 67.3737 136.311 68.307C136.834 69.2403 137.095 70.4163 137.095 71.835V80.375H135.107V72.031C135.107 70.4817 134.715 69.315 133.931 68.531C133.166 67.7283 132.083 67.327 130.683 67.327C129.638 67.327 128.723 67.5417 127.939 67.971C127.174 68.3817 126.577 68.9883 126.147 69.791C125.737 70.575 125.531 71.527 125.531 72.647V80.375H123.543V59.599H125.531V69.707L125.139 68.951C125.606 67.887 126.353 67.0563 127.379 66.459C128.406 65.843 129.629 65.535 131.047 65.535ZM67.1936 114.543C65.7189 114.543 64.3469 114.3 63.0776 113.815C61.8269 113.311 60.7349 112.611 59.8016 111.715C58.8869 110.8 58.1683 109.746 57.6456 108.551C57.1416 107.338 56.8896 106.012 56.8896 104.575C56.8896 103.138 57.1416 101.822 57.6456 100.627C58.1683 99.4137 58.8869 98.359 59.8016 97.463C60.7349 96.5483 61.8269 95.8483 63.0776 95.363C64.3283 94.859 65.7003 94.607 67.1936 94.607C68.6683 94.607 70.0309 94.859 71.2816 95.363C72.5323 95.8483 73.6149 96.539 74.5296 97.435C75.4629 98.331 76.1816 99.3857 76.6856 100.599C77.2083 101.812 77.4696 103.138 77.4696 104.575C77.4696 106.012 77.2083 107.338 76.6856 108.551C76.1816 109.764 75.4629 110.819 74.5296 111.715C73.6149 112.611 72.5323 113.311 71.2816 113.815C70.0309 114.3 68.6683 114.543 67.1936 114.543ZM73.6056 118.267C73.0083 118.267 72.4296 118.192 71.8696 118.043C71.3096 117.894 70.7403 117.651 70.1616 117.315C69.6016 116.998 69.0229 116.578 68.4256 116.055C67.8283 115.532 67.1749 114.898 66.4656 114.151L68.7336 113.591C69.3123 114.282 69.8723 114.851 70.4136 115.299C70.9736 115.747 71.5149 116.074 72.0376 116.279C72.5789 116.503 73.1109 116.615 73.6336 116.615C75.0896 116.615 76.3309 116.018 77.3576 114.823L78.3656 116.027C77.1336 117.52 75.5469 118.267 73.6056 118.267ZM67.1936 112.695C68.3696 112.695 69.4523 112.499 70.4416 112.107C71.4496 111.696 72.3176 111.118 73.0456 110.371C73.7923 109.624 74.3709 108.766 74.7816 107.795C75.1923 106.806 75.3976 105.732 75.3976 104.575C75.3976 103.399 75.1923 102.326 74.7816 101.355C74.3709 100.366 73.7923 99.507 73.0456 98.779C72.3176 98.0323 71.4496 97.463 70.4416 97.071C69.4523 96.6603 68.3696 96.455 67.1936 96.455C66.0176 96.455 64.9256 96.6603 63.9176 97.071C62.9096 97.463 62.0323 98.0323 61.2856 98.779C60.5576 99.507 59.9789 100.366 59.5496 101.355C59.1389 102.326 58.9336 103.399 58.9336 104.575C58.9336 105.732 59.1389 106.806 59.5496 107.795C59.9789 108.766 60.5576 109.624 61.2856 110.371C62.0323 111.118 62.9096 111.696 63.9176 112.107C64.9256 112.499 66.0176 112.695 67.1936 112.695ZM87.7699 114.515C86.5192 114.515 85.4272 114.282 84.4939 113.815C83.5605 113.348 82.8325 112.648 82.3099 111.715C81.8059 110.782 81.5539 109.615 81.5539 108.215V99.675H83.5419V107.991C83.5419 109.559 83.9245 110.744 84.6899 111.547C85.4739 112.331 86.5659 112.723 87.9659 112.723C88.9925 112.723 89.8792 112.518 90.6259 112.107C91.3912 111.678 91.9699 111.062 92.3619 110.259C92.7725 109.456 92.9779 108.495 92.9779 107.375V99.675H94.9659V114.375H93.0619V110.343L93.3699 111.071C92.9032 112.154 92.1752 113.003 91.1859 113.619C90.2152 114.216 89.0765 114.515 87.7699 114.515ZM109.718 114.375V111.127L109.634 110.595V105.163C109.634 103.912 109.28 102.951 108.57 102.279C107.88 101.607 106.844 101.271 105.462 101.271C104.51 101.271 103.605 101.43 102.746 101.747C101.888 102.064 101.16 102.484 100.562 103.007L99.6664 101.523C100.413 100.888 101.309 100.403 102.354 100.067C103.4 99.7123 104.501 99.535 105.658 99.535C107.562 99.535 109.028 100.011 110.054 100.963C111.1 101.896 111.622 103.324 111.622 105.247V114.375H109.718ZM104.65 114.515C103.549 114.515 102.588 114.338 101.766 113.983C100.964 113.61 100.348 113.106 99.9184 112.471C99.489 111.818 99.2744 111.071 99.2744 110.231C99.2744 109.466 99.4517 108.775 99.8064 108.159C100.18 107.524 100.777 107.02 101.598 106.647C102.438 106.255 103.558 106.059 104.958 106.059H110.026V107.543H105.014C103.596 107.543 102.606 107.795 102.046 108.299C101.505 108.803 101.234 109.428 101.234 110.175C101.234 111.015 101.561 111.687 102.214 112.191C102.868 112.695 103.782 112.947 104.958 112.947C106.078 112.947 107.04 112.695 107.842 112.191C108.664 111.668 109.261 110.922 109.634 109.951L110.082 111.323C109.709 112.294 109.056 113.068 108.122 113.647C107.208 114.226 106.05 114.515 104.65 114.515ZM117.022 114.375V93.599H119.01V114.375H117.022ZM124.542 114.375V99.675H126.53V114.375H124.542ZM125.55 96.427C125.139 96.427 124.794 96.287 124.514 96.007C124.234 95.727 124.094 95.391 124.094 94.999C124.094 94.607 124.234 94.2803 124.514 94.019C124.794 93.739 125.139 93.599 125.55 93.599C125.96 93.599 126.306 93.7297 126.586 93.991C126.866 94.2523 127.006 94.579 127.006 94.971C127.006 95.3817 126.866 95.727 126.586 96.007C126.324 96.287 125.979 96.427 125.55 96.427ZM136.709 114.515C135.328 114.515 134.264 114.142 133.517 113.395C132.77 112.648 132.397 111.594 132.397 110.231V96.427H134.385V110.119C134.385 110.978 134.6 111.64 135.029 112.107C135.477 112.574 136.112 112.807 136.933 112.807C137.81 112.807 138.538 112.555 139.117 112.051L139.817 113.479C139.425 113.834 138.949 114.095 138.389 114.263C137.848 114.431 137.288 114.515 136.709 114.515ZM129.765 101.327V99.675H138.865V101.327H129.765ZM143.275 119.947C142.584 119.947 141.921 119.835 141.287 119.611C140.671 119.387 140.139 119.051 139.691 118.603L140.615 117.119C140.988 117.474 141.389 117.744 141.819 117.931C142.267 118.136 142.761 118.239 143.303 118.239C143.956 118.239 144.516 118.052 144.983 117.679C145.468 117.324 145.925 116.69 146.355 115.775L147.307 113.619L147.531 113.311L153.579 99.675H155.539L148.175 116.139C147.764 117.091 147.307 117.847 146.803 118.407C146.317 118.967 145.785 119.359 145.207 119.583C144.628 119.826 143.984 119.947 143.275 119.947ZM147.195 114.795L140.419 99.675H142.491L148.483 113.171L147.195 114.795Z" fill="white"/>
</g>
<defs>
<filter id="filter0_ddd_879_22798" x="0" y="0.375" width="211" height="213" filterUnits="userSpaceOnUse" color-interpolation-filters="sRGB">
<feFlood flood-opacity="0" result="BackgroundImageFix"/>
<feColorMatrix in="SourceAlpha" type="matrix" values="0 0 0 0 0 0 0 0 0 0 0 0 0 0 0 0 0 0 127 0" result="hardAlpha"/>
<feOffset dy="1"/>
<feGaussianBlur stdDeviation="1.5"/>
<feComposite in2="hardAlpha" operator="out"/>
<feColorMatrix type="matrix" values="0 0 0 0 0 0 0 0 0 0 0 0 0 0 0 0 0 0 0.0509804 0"/>
<feBlend mode="normal" in2="BackgroundImageFix" result="effect1_dropShadow_879_22798"/>
<feColorMatrix in="SourceAlpha" type="matrix" values="0 0 0 0 0 0 0 0 0 0 0 0 0 0 0 0 0 0 127 0" result="hardAlpha"/>
<feMorphology radius="5" operator="erode" in="SourceAlpha" result="effect2_dropShadow_879_22798"/>
<feOffset dy="20"/>
<feGaussianBlur stdDeviation="12.5"/>
<feComposite in2="hardAlpha" operator="out"/>
<feColorMatrix type="matrix" values="0 0 0 0 0 0 0 0 0 0 0 0 0 0 0 0 0 0 0.101961 0"/>
<feBlend mode="normal" in2="effect1_dropShadow_879_22798" result="effect2_dropShadow_879_22798"/>
<feColorMatrix in="SourceAlpha" type="matrix" values="0 0 0 0 0 0 0 0 0 0 0 0 0 0 0 0 0 0 127 0" result="hardAlpha"/>
<feMorphology radius="5" operator="erode" in="SourceAlpha" result="effect3_dropShadow_879_22798"/>
<feOffset dy="10"/>
<feGaussianBlur stdDeviation="5"/>
<feComposite in2="hardAlpha" operator="out"/>
<feColorMatrix type="matrix" values="0 0 0 0 0 0 0 0 0 0 0 0 0 0 0 0 0 0 0.0392157 0"/>
<feBlend mode="normal" in2="effect2_dropShadow_879_22798" result="effect3_dropShadow_879_22798"/>
<feBlend mode="normal" in="SourceGraphic" in2="effect3_dropShadow_879_22798" result="shape"/>
</filter>
</defs>
</svg>
