<svg width="399" height="90" viewBox="0 0 399 90" fill="none" xmlns="http://www.w3.org/2000/svg">
<path d="M45.2387 0.39449C44.0024 0.619913 39.2256 1.46525 34.5613 2.25423C29.9531 3.09957 24.6144 4.00126 22.7599 4.33939C16.9154 5.35379 17.4211 4.33939 17.4211 14.2016V22.8804H0V41.4778H17.4211L17.4773 51.4527C17.5335 70.3319 18.6013 74.8967 24.4458 80.7577C28.6044 84.928 33.0439 87.1822 40.2934 88.7602C47.3742 90.3381 57.8831 90.3381 65.9755 88.8165C71.82 87.6894 79.1818 85.0407 80.924 83.4627C81.4297 83.0119 82.0479 82.6174 82.2727 82.6174C82.7785 82.6174 88.623 78.278 89.0725 77.5454C89.2973 77.2073 90.8708 77.9962 92.8939 79.4615C102.953 86.6187 115.822 90 132.569 90C148.81 89.9436 161.904 86.5623 171.739 79.7996C174.267 77.9962 179.269 73.0933 179.269 72.3607C179.269 72.1353 179.55 71.9098 179.831 71.9098C180.168 71.9098 180.393 72.1916 180.393 72.4734C180.393 73.6005 184.158 78.8979 186.575 81.3212C197.589 92.1415 221.866 92.9305 236.871 82.9555C239.681 81.0394 243.952 76.8128 245.638 74.1641C246.537 72.7552 246.593 72.8115 247.268 76.9818C247.605 79.2924 248.111 82.1102 248.392 83.181C248.616 84.2517 249.01 85.8297 249.178 86.7314L249.516 88.253H275.366V41.4778H286.549L286.887 70.5573L289.022 74.8403C293.911 84.8716 304.814 89.8873 321.504 89.9436C336.172 89.9436 347.973 86.1678 356.403 78.7289L358.426 76.9255L356.74 72.3043C355.784 69.7683 354.436 66.0488 353.705 64.0764C352.918 62.0476 352.244 60.3006 352.075 60.1315C351.907 60.0188 351.064 60.4133 350.221 61.0895C346.793 63.851 344.039 65.598 340.555 67.1196C337.183 68.6412 336.396 68.7539 330.102 68.8103C323.808 68.8103 323.19 68.6976 321.279 67.4014C317.514 64.8654 316.952 62.8366 316.952 51.4527V41.4778L336.509 41.3651L356.009 41.196L356.178 32.01L356.29 22.8804H316.952V11.6093C316.952 1.23983 316.896 0.338135 315.997 0.338135C314.648 0.338135 306.162 1.74703 299.25 3.09957C296.159 3.71948 292.506 4.39574 291.101 4.56481C286.212 5.24108 286.606 4.4521 286.606 14.2016V22.8804H245.582V37.9274C245.582 46.268 245.301 54.7777 245.02 56.9756C243.559 67.0632 235.354 72.9242 223.777 72.0789C219.169 71.7971 216.696 71.0081 213.999 68.923C210.908 66.556 209.278 63.5692 208.548 58.948C208.211 56.9192 207.93 48.015 207.93 39.0545V22.8804H178.145V36.5748L175.616 34.2079C164.489 23.8948 143.809 18.8792 122.229 21.1897C109.472 22.5423 97.2773 27.2761 90.6461 33.3062L87.1056 36.5185V22.8804H47.7676L47.6552 11.4402L47.4866 0L45.2387 0.39449ZM140.043 39.8435C148.248 41.5905 153.756 47.2261 154.374 54.4959C154.655 57.1446 154.43 58.2154 153.194 60.9768C151.227 65.2599 149.035 67.5141 144.933 69.3738C140.437 71.3463 135.604 72.0789 129.535 71.6281C117.958 70.8391 110.708 64.3582 110.708 55.0031C110.708 47.9587 115.935 42.0413 123.915 40.0689C127.511 39.1672 136.222 39.0545 140.043 39.8435ZM82.7223 43.5629C80.9801 47.057 80.2496 51.0582 80.4182 56.5247L80.5868 61.7095L78.1141 63.5128C76.7654 64.5272 73.9555 66.1052 71.9324 67.0632C68.5044 68.6412 67.83 68.7539 61.5359 68.8103C55.4104 68.8103 54.6237 68.6976 52.6568 67.4577C48.723 65.0344 48.1048 62.8929 47.88 51.4527L47.6552 41.4778H83.7338L82.7223 43.5629Z" fill="#141414"/>
<path d="M377.926 61.0331C368.597 63.5128 363.54 72.3043 366.911 80.1377C369.496 86.1114 374.948 89.38 382.478 89.38C389.559 89.38 394.223 87.0695 397.426 82.1102C398.775 79.9123 399 79.0106 399 75.5165C399 70.839 398.494 69.2047 396.19 66.2742C393.605 63.0056 389.053 61.0895 383.546 60.8641C381.073 60.7514 378.544 60.8641 377.926 61.0331Z" fill="#F76707"/>
</svg>
