<svg width="119" height="28" viewBox="0 0 119 28" fill="none" xmlns="http://www.w3.org/2000/svg">
<path fill-rule="evenodd" clip-rule="evenodd" d="M7.05184 1.75V28H0V1.75H7.05184Z" fill="#141414"/>
<path fill-rule="evenodd" clip-rule="evenodd" d="M10.5778 1.75H25.563C30.4313 1.75 34.3778 5.66751 34.3778 10.5C34.3778 15.3325 30.4313 19.25 25.563 19.25H17.6296V28H10.5778V1.75ZM17.6296 12.25H25.563C26.5366 12.25 27.3259 11.4665 27.3259 10.5C27.3259 9.53351 26.5366 8.75 25.563 8.75H17.6296V12.25Z" fill="#141414"/>
<path fill-rule="evenodd" clip-rule="evenodd" d="M60.8222 1.75V15.3125C60.8222 18.4536 63.3874 21 66.5518 21C69.7163 21 72.2816 18.4536 72.2816 15.3125V1.75H79.3336V15.3125C79.3336 22.3196 73.611 28 66.5518 28C59.4928 28 53.7704 22.3196 53.7704 15.3125V1.75H60.8222Z" fill="#F76707"/>
<path fill-rule="evenodd" clip-rule="evenodd" d="M37.0222 14C37.0222 7.2345 42.5474 1.75 49.363 1.75H51.1259V8.75H49.363C46.442 8.75 44.0741 11.1005 44.0741 14V14.875C44.0741 22.1237 38.1543 28 30.8518 28H29.9704V21H30.8518C34.2597 21 37.0222 18.2577 37.0222 14.875V14Z" fill="#141414"/>
<path d="M119 2.625C119 4.07475 117.816 5.25 116.355 5.25C114.895 5.25 113.711 4.07475 113.711 2.625C113.711 1.17525 114.895 0 116.355 0C117.816 0 119 1.17525 119 2.625Z" fill="#007F7F"/>
<path d="M86.9052 28L90.2703 14.0127L92.7721 22.4275C94.2635 27.4464 101.425 27.4464 102.917 22.4275L105.419 14.0127L108.784 28H116.033L110.743 6.00564C109.484 0.775208 102.059 0.581547 100.525 5.73924L97.8447 14.7583L95.1634 5.73924C93.6305 0.581577 86.2046 0.77518 84.9463 6.00564L79.6554 28H86.9052Z" fill="#141414"/>
</svg>
