<svg width="108" height="40" viewBox="0 0 108 40" fill="none" xmlns="http://www.w3.org/2000/svg">
<path d="M6.35642 0.029745C6.21923 0.0591421 5.77827 0.166932 5.37651 0.28452C2.09384 1.17623 -0.218737 4.72348 0.01644 8.49611C0.163426 10.7303 1.05514 12.6411 2.66218 14.1404C3.94585 15.3358 5.15114 15.8356 6.95416 15.914C7.94386 15.963 8.19864 15.9336 8.86497 15.7474C12.4808 14.6989 14.617 11.2496 14.274 7.04586C14.0095 3.86117 11.8439 1.10764 8.92377 0.255123C8.27703 0.0591421 6.82677 -0.0584463 6.35642 0.029745Z" fill="black"/>
<path d="M24.3376 0.108138C23.2891 0.353114 23.0735 0.421707 22.466 0.735277C20.5552 1.70538 19.0265 3.75338 18.5072 6.04636C18.2426 7.20264 18.2132 8.76069 18.4484 9.6524C18.5366 9.99537 18.6052 10.3383 18.6052 10.4265C18.6052 10.6323 19.1441 11.8278 19.5557 12.5431C20.0064 13.3172 21.2411 14.5421 22.0446 15.0125C23.1029 15.6396 23.8869 15.865 25.1803 15.914C26.17 15.963 26.4248 15.9336 27.0912 15.7474C28.2082 15.424 29.3057 14.8263 30.0701 14.1306C31.9123 12.4353 34.1367 11.8572 36.361 12.5039C37.3018 12.7783 38.0269 13.1899 39.0852 14.0816C40.0749 14.9145 40.9274 15.4044 41.8779 15.7082C42.7108 15.9728 44.6706 15.9728 45.5035 15.7082C48.0023 14.9047 49.7563 13.0331 50.5598 10.3089C50.7656 9.6328 50.795 9.31923 50.795 8.00616C50.795 6.69309 50.7656 6.37952 50.5598 5.70339C49.8837 3.42021 48.6294 1.81317 46.699 0.764673C44.9254 -0.205431 42.3973 -0.195632 40.653 0.784272C40.0553 1.11744 39.1342 1.77397 39.0362 1.93076C38.9284 2.10714 37.9681 2.77348 37.4683 3.03805C35.3419 4.10614 33.0588 3.95916 31.0304 2.62649C30.6384 2.36192 30.2072 2.02875 30.0701 1.88176C28.8648 0.558894 26.1112 -0.293623 24.3376 0.108138Z" fill="#F76707"/>
<path d="M24.0437 24.2627C21.7801 24.7723 19.9281 26.3695 18.958 28.6723C17.5763 31.9256 18.3406 35.8648 20.81 38.1676C21.5743 38.8829 22.3386 39.3435 23.3675 39.7158C24.0633 39.9706 24.269 39.9902 25.4155 40C26.562 40 26.7678 39.9706 27.4635 39.7256C29.1686 39.1279 30.4816 38.0402 31.4027 36.4821C32.2357 35.0809 32.559 33.8266 32.559 32.0628C32.559 30.2206 32.1965 28.9075 31.2852 27.4866C30.1681 25.7424 28.659 24.6645 26.807 24.2725C25.7095 24.0374 25.0726 24.0374 24.0437 24.2627Z" fill="black"/>
<path d="M45.6016 24.2823C45.386 24.3215 44.5531 24.4685 43.7398 24.6057C42.9362 24.7527 42.0053 24.9094 41.682 24.9682C40.6629 25.1446 40.7511 24.9682 40.7511 26.6831V28.1921H37.7134V31.4258H40.7511L40.7609 33.1602C40.7707 36.4429 40.9568 37.2366 41.9759 38.2557C42.7011 38.9809 43.4752 39.3728 44.7393 39.6472C45.9739 39.9216 47.8064 39.9216 49.2174 39.657C50.2365 39.461 51.5202 39.0005 51.824 38.7261C51.9122 38.6477 52.0199 38.5791 52.0591 38.5791C52.1473 38.5791 53.1664 37.8246 53.2448 37.6972C53.284 37.6384 53.5584 37.7756 53.9112 38.0304C55.6652 39.2748 57.9092 39.8628 60.8293 39.8628C63.6612 39.853 65.9444 39.265 67.6592 38.0891C68.1002 37.7756 68.9723 36.9231 68.9723 36.7957C68.9723 36.7565 69.0213 36.7173 69.0703 36.7173C69.1291 36.7173 69.1683 36.7663 69.1683 36.8153C69.1683 37.0113 69.8248 37.9324 70.2462 38.3537C72.1668 40.2351 76.3999 40.3723 79.0163 38.6379C79.5062 38.3047 80.251 37.5698 80.5449 37.1092C80.7017 36.8643 80.7115 36.8741 80.8291 37.5992C80.8879 38.001 80.9761 38.4909 81.0251 38.6771C81.0643 38.8633 81.1329 39.1376 81.1623 39.2944L81.2211 39.559H85.7286V31.4258H87.6786L87.7374 36.4821L88.1098 37.2268C88.9623 38.9711 90.8633 39.8432 93.7737 39.853C96.3312 39.853 98.389 39.1964 99.8589 37.903L100.212 37.5894L99.9176 36.7859C99.7511 36.3449 99.5159 35.6982 99.3885 35.3552C99.2513 35.0024 99.1337 34.6987 99.1043 34.6693C99.0749 34.6497 98.9279 34.7183 98.781 34.8359C98.1832 35.316 97.7031 35.6198 97.0955 35.8844C96.5076 36.1489 96.3704 36.1685 95.2729 36.1783C94.1754 36.1783 94.0676 36.1587 93.7345 35.9334C93.0779 35.4924 92.9799 35.1396 92.9799 33.1602V31.4258L96.39 31.4062L99.7903 31.3768L99.8196 29.7796L99.8392 28.1921H92.9799V26.2323C92.9799 24.4293 92.9701 24.2725 92.8133 24.2725C92.5782 24.2725 91.0985 24.5175 89.8932 24.7527C89.3543 24.8604 88.7173 24.978 88.4724 25.0074C87.6199 25.125 87.6884 24.9878 87.6884 26.6831V28.1921H80.5351V30.8085C80.5351 32.2587 80.4862 33.7384 80.4372 34.1205C80.1824 35.8746 78.7517 36.8937 76.7331 36.7467C75.9296 36.6977 75.4984 36.5605 75.0281 36.1979C74.4891 35.7864 74.205 35.267 74.0776 34.4635C74.0188 34.1107 73.9698 32.5625 73.9698 31.0044V28.1921H68.7763V30.5733L68.3353 30.1617C66.3951 28.3685 62.7891 27.4964 59.0263 27.8981C56.8019 28.1333 54.6755 28.9564 53.5192 30.0049L52.9019 30.5635V28.1921H46.0425L46.0229 26.2029L45.9935 24.2137L45.6016 24.2823ZM62.1326 31.1416C63.5632 31.4454 64.5235 32.4253 64.6313 33.6894C64.6803 34.1499 64.6411 34.3361 64.4255 34.8163C64.0826 35.561 63.7004 35.953 62.9851 36.2763C62.2011 36.6193 61.3584 36.7467 60.3001 36.6683C58.2815 36.5311 57.0175 35.4042 57.0175 33.7776C57.0175 32.5527 57.9288 31.5238 59.3202 31.1808C59.9474 31.024 61.4662 31.0044 62.1326 31.1416ZM52.1375 31.7884C51.8338 32.3959 51.7064 33.0916 51.7358 34.0421L51.7652 34.9437L51.334 35.2572C51.0988 35.4336 50.6089 35.708 50.2561 35.8746C49.6584 36.1489 49.5408 36.1685 48.4433 36.1783C47.3752 36.1783 47.238 36.1587 46.8951 35.9432C46.2091 35.5218 46.1013 35.1494 46.0621 33.1602L46.0229 31.4258H52.3139L52.1375 31.7884Z" fill="black"/>
<path d="M103.612 34.8261C101.985 35.2572 101.103 36.7859 101.691 38.1479C102.142 39.1866 103.093 39.755 104.406 39.755C105.64 39.755 106.454 39.3532 107.012 38.4909C107.247 38.1087 107.287 37.952 107.287 37.3444C107.287 36.5311 107.198 36.2469 106.797 35.7374C106.346 35.169 105.552 34.8359 104.592 34.7967C104.161 34.7771 103.72 34.7967 103.612 34.8261Z" fill="#F76707"/>
</svg>
