<svg width="869" height="277" viewBox="0 0 869 277" fill="none" xmlns="http://www.w3.org/2000/svg">
<g filter="url(#filter0_dd_886_111319)">
<path d="M764 90C772.799 90 781.511 91.733 789.64 95.1001C797.769 98.4671 805.155 103.402 811.376 109.624C817.598 115.845 822.533 123.231 825.9 131.36C829.267 139.489 831 148.201 831 157H799.001C799.001 152.404 798.095 147.852 796.337 143.606C794.578 139.359 791.999 135.501 788.749 132.251C785.499 129.001 781.641 126.422 777.394 124.663C773.148 122.905 768.596 121.999 764 121.999V90Z" fill="#F76707"/>
<rect width="726" height="32" transform="matrix(-1 0 0 1 764 90)" fill="#F76707"/>
</g>
<g filter="url(#filter1_dd_886_111319)">
<path d="M686.258 15C695.056 15 703.769 16.733 711.898 20.1001C720.026 23.4671 727.412 28.4023 733.634 34.6238C739.855 40.8454 744.791 48.2314 748.158 56.3602C751.525 64.489 753.258 73.2014 753.258 82H721.259C721.259 77.4036 720.353 72.8523 718.594 68.6058C716.835 64.3593 714.257 60.5008 711.007 57.2507C707.757 54.0006 703.899 51.4224 699.652 49.6635C695.406 47.9045 690.854 46.9992 686.258 46.9992V15Z" fill="#12B886"/>
<rect width="648.255" height="32" transform="matrix(-1 0 0 1 686.258 15)" fill="#12B886"/>
<rect width="32" height="75" transform="matrix(-1 0 0 1 753.258 82)" fill="#12B886"/>
</g>
<defs>
<filter id="filter0_dd_886_111319" x="0" y="75" width="869" height="265" filterUnits="userSpaceOnUse" color-interpolation-filters="sRGB">
<feFlood flood-opacity="0" result="BackgroundImageFix"/>
<feColorMatrix in="SourceAlpha" type="matrix" values="0 0 0 0 0 0 0 0 0 0 0 0 0 0 0 0 0 0 127 0" result="hardAlpha"/>
<feOffset/>
<feGaussianBlur stdDeviation="7.5"/>
<feComposite in2="hardAlpha" operator="out"/>
<feColorMatrix type="matrix" values="0 0 0 0 0 0 0 0 0 0 0 0 0 0 0 0 0 0 0.07 0"/>
<feBlend mode="normal" in2="BackgroundImageFix" result="effect1_dropShadow_886_111319"/>
<feColorMatrix in="SourceAlpha" type="matrix" values="0 0 0 0 0 0 0 0 0 0 0 0 0 0 0 0 0 0 127 0" result="hardAlpha"/>
<feMorphology radius="12" operator="erode" in="SourceAlpha" result="effect2_dropShadow_886_111319"/>
<feOffset dy="25"/>
<feGaussianBlur stdDeviation="25"/>
<feColorMatrix type="matrix" values="0 0 0 0 0 0 0 0 0 0 0 0 0 0 0 0 0 0 0.25 0"/>
<feBlend mode="normal" in2="effect1_dropShadow_886_111319" result="effect2_dropShadow_886_111319"/>
<feBlend mode="normal" in="SourceGraphic" in2="effect2_dropShadow_886_111319" result="shape"/>
</filter>
<filter id="filter1_dd_886_111319" x="0.00390625" y="0" width="791.254" height="340" filterUnits="userSpaceOnUse" color-interpolation-filters="sRGB">
<feFlood flood-opacity="0" result="BackgroundImageFix"/>
<feColorMatrix in="SourceAlpha" type="matrix" values="0 0 0 0 0 0 0 0 0 0 0 0 0 0 0 0 0 0 127 0" result="hardAlpha"/>
<feOffset/>
<feGaussianBlur stdDeviation="7.5"/>
<feComposite in2="hardAlpha" operator="out"/>
<feColorMatrix type="matrix" values="0 0 0 0 0 0 0 0 0 0 0 0 0 0 0 0 0 0 0.07 0"/>
<feBlend mode="normal" in2="BackgroundImageFix" result="effect1_dropShadow_886_111319"/>
<feColorMatrix in="SourceAlpha" type="matrix" values="0 0 0 0 0 0 0 0 0 0 0 0 0 0 0 0 0 0 127 0" result="hardAlpha"/>
<feMorphology radius="12" operator="erode" in="SourceAlpha" result="effect2_dropShadow_886_111319"/>
<feOffset dy="25"/>
<feGaussianBlur stdDeviation="25"/>
<feColorMatrix type="matrix" values="0 0 0 0 0 0 0 0 0 0 0 0 0 0 0 0 0 0 0.25 0"/>
<feBlend mode="normal" in2="effect1_dropShadow_886_111319" result="effect2_dropShadow_886_111319"/>
<feBlend mode="normal" in="SourceGraphic" in2="effect2_dropShadow_886_111319" result="shape"/>
</filter>
</defs>
</svg>
