<svg width="343" height="199" viewBox="0 0 343 199" fill="none" xmlns="http://www.w3.org/2000/svg">
<path d="M74.8467 2.59375C85.5572 0.145217 99.3277 1.50983 112.307 5.56641C124.883 9.49731 136.564 15.9088 143.896 23.6367L144.591 24.3887L144.6 24.3975C146.267 26.2012 151.122 30.011 155.705 33.1953L156.617 33.8232L156.627 33.8301C181.941 50.6275 210.491 52.4914 237.053 39.0166L237.062 39.0117L237.071 39.0068C240.206 37.3308 244.747 34.4046 248.662 31.6309C250.622 30.242 252.44 28.8808 253.857 27.7227C254.566 27.1441 255.184 26.6083 255.673 26.1396C256.14 25.6924 256.551 25.2488 256.791 24.8555C256.868 24.7305 257.094 24.465 257.531 24.0498C257.948 23.6542 258.499 23.1747 259.164 22.6299C260.493 21.5415 262.238 20.2197 264.185 18.8232C267.836 16.2031 272.154 13.3496 275.683 11.3125L276.377 10.916L276.38 10.915C297.26 -0.932224 327.449 -1.23742 348.97 10.126L349.987 10.6758L349.99 10.6777C373.181 23.3991 388.384 42.7782 396.746 70.2969L397.14 71.6133L397.142 71.6211C399.637 79.9007 400 83.6883 400 100.022C400 115.336 399.681 119.622 397.585 126.92L397.142 128.425L397.139 128.433C387.31 162.087 365.895 185.131 335.418 195.03C330.432 196.63 321.946 197.455 313.36 197.455C304.774 197.455 296.288 196.63 291.303 195.03H291.302C280.091 191.411 269.977 185.64 258.326 175.908L257.193 174.954C244.477 164.133 235.571 158.902 224.319 155.432L223.223 155.101H223.222C195.843 147.061 168.478 154.034 145.732 174.604L144.653 175.594C135.64 183.878 122.786 191.059 109.584 195.127L108.305 195.511C104.218 196.664 101.449 197.315 98.2041 197.611C95.3492 197.872 92.1011 197.862 87.2461 197.65L85.0635 197.548L85.0518 197.547L83.5889 197.484C69.1387 196.789 59.9521 194.118 48.0449 187.166L46.8447 186.456L46.8398 186.453L45.915 185.889C41.2128 182.931 35.4128 178.013 30.0547 172.645C24.5166 167.095 19.5311 161.146 16.7549 156.495L16.4932 156.049C13.9759 151.629 11.06 145.711 8.77344 140.576C7.63004 138.008 6.64963 135.648 5.95703 133.779C5.61038 132.844 5.34026 132.043 5.1582 131.406C4.96717 130.739 4.90137 130.345 4.90137 130.178C4.90132 129.509 4.66515 128.061 4.32324 126.35C4.05986 125.031 3.71964 123.49 3.33496 121.895L2.93652 120.286L2.93457 120.28L2.67676 119.233C0.191739 108.526 0.506187 90.8622 3.37305 77.1807L3.66797 75.8262V75.8242C9.91809 47.9545 28.1255 23.0503 50.8975 10.8936L51.9854 10.3242L51.9912 10.3213C59.3796 6.46995 61.9479 5.63872 74.8477 2.59473L74.8467 2.59375Z" stroke="#F76707" stroke-width="2"/>
</svg>
